# xmcd
#
# Track frame offsets: 
#        187
#        14757
#        29405
#        45177
#        61010
#        77232
#        95210
#        108305
#        123677
#        138900
#        158122
#        172817
#        190407
#        202585
#        219345
#        232172
#        243415
#
# Disc length: 3468 seconds
#
# Revision: 2
# Processed by: cddbd v1.4PL0 Copyright (c) Steve Scherf et al.
# Submitted via: ExactAudioCopy v0.90a11
#
DISCID=e30d8a11
DTITLE=The Judds - The Judds Collection (1983 - 1990) - Disc 1
DYEAR=1900
DGENRE=
TTITLE0=Had A Dream (For The Heart)
TTITLE1=Mama He's Crazy
TTITLE2=Drops Of Water
TTITLE3=Why Not Me
TTITLE4=Change Of Heart
TTITLE5=Love Is Alive
TTITLE6=Girls Night Out
TTITLE7=Mr. Pain
TTITLE8=Have Mercy
TTITLE9=Grandpa (Tell Me About The Good Old Days)
TTITLE10=Lazy Country Evening
TTITLE11=Tears For You
TTITLE12=Rockin' With The Rhythm Of The Rain
TTITLE13=Cry Myself To Sleep
TTITLE14=If I Were You
TTITLE15=Don't Be Cruel
TTITLE16=Dream Chaser
EXTD=
EXTT0=
EXTT1=
EXTT2=
EXTT3=
EXTT4=
EXTT5=
EXTT6=
EXTT7=
EXTT8=
EXTT9=
EXTT10=
EXTT11=
EXTT12=
EXTT13=
EXTT14=
EXTT15=
EXTT16=
PLAYORDER=
